<svg width="223" height="39" viewBox="0 0 223 39" fill="none" xmlns="http://www.w3.org/2000/svg">
<path d="M12.6787 6.01707H0V0H32.3849V6.01707H19.7063V38.2772H12.6787V6.01707Z" fill="black"/>
<path d="M69.9139 38.2771L62.0893 27.113C61.5822 27.1854 61.0751 27.1855 60.6404 27.1855H52.0189V38.3496H44.9188V0.144958H60.6404C70.7109 0.144958 76.8691 5.29207 76.8691 13.7739C76.8691 19.5735 73.8987 23.8507 68.7548 25.8081L77.5212 38.3496H69.9139V38.2771ZM60.2781 6.01703H52.0189V21.2409H60.2781C66.5088 21.2409 69.6966 18.4136 69.6966 13.629C69.769 8.84432 66.5088 6.01703 60.2781 6.01703Z" fill="black"/>
<path d="M169.677 0V38.2772H163.809L142.726 12.3966V38.2772H135.698V0H141.567L162.649 25.8806V0H169.677Z" fill="black"/>
<path d="M211.843 29.4328H192.716L188.949 38.2771H181.631L198.802 0.0724487H205.757L223 38.2771H215.61L211.843 29.4328ZM209.524 23.8507L202.352 7.17692L195.179 23.8507H209.524Z" fill="black"/>
<path d="M119.904 0H92.011V5.94457H119.904V0Z" fill="#73FF00"/>
<path d="M107.298 15.9488H92.011V21.8209H107.298V15.9488Z" fill="#73FF00"/>
<path d="M120.629 32.3326H92.011V38.2772H120.629V32.3326Z" fill="#73FF00"/>
</svg>
